REM DIRINDEX 1\2\6,1\2\7,1\2\8,1\2\9,1\3\10,1\3\11,1\4\12,1\4\13,1\4\14,1\5\15,1\5\16,1\5\17
REM DIRNAME folder01,folder02,folder03,folder04,folder05,folder06,folder07,folder08,folder09,folder10,folder11,folder12,folder13,folder14,folder15,folder16,folder17
TITLE ""
FILE "1900_3_024 sec04_0380_0400.mp3" MP3
  TRACK 01 AUDIO
    TITLE "0:"
    INDEX 01 00:00:00
  TRACK 02 AUDIO
    TITLE "17:cjc020_6729"
    INDEX 01 00:00:19
  TRACK 03 AUDIO
    TITLE "0:"
    INDEX 01 00:01:52
  TRACK 04 AUDIO
    TITLE "16:cjc020_6730"
    INDEX 01 00:01:58
  TRACK 05 AUDIO
    TITLE "0:"
    INDEX 01 00:03:00
  TRACK 06 AUDIO
    TITLE "17:cjc020_6731"
    INDEX 01 00:03:63
  TRACK 07 AUDIO
    TITLE "0:"
    INDEX 01 00:05:22
  TRACK 08 AUDIO
    TITLE "16:cjc020_6732"
    INDEX 01 00:05:28
  TRACK 09 AUDIO
    TITLE "0:"
    INDEX 01 00:06:55
  TRACK 10 AUDIO
    TITLE "17:cjc020_6733"
    INDEX 01 00:07:39
  TRACK 11 AUDIO
    TITLE "0:"
    INDEX 01 00:08:50
  TRACK 12 AUDIO
    TITLE "16:cjc020_6734"
    INDEX 01 00:08:58
  TRACK 13 AUDIO
    TITLE "0:"
    INDEX 01 00:09:65
  TRACK 14 AUDIO
    TITLE "17:cjc020_6735"
    INDEX 01 00:10:45
  TRACK 15 AUDIO
    TITLE "0:"
    INDEX 01 00:12:01
  TRACK 16 AUDIO
    TITLE "16:cjc020_6736"
    INDEX 01 00:12:07
  TRACK 17 AUDIO
    TITLE "0:"
    INDEX 01 00:13:20
  TRACK 18 AUDIO
    TITLE "17:cjc020_6737"
    INDEX 01 00:14:07
  TRACK 19 AUDIO
    TITLE "0:"
    INDEX 01 00:15:36
  TRACK 20 AUDIO
    TITLE "16:cjc020_6738"
    INDEX 01 00:15:44
  TRACK 21 AUDIO
    TITLE "0:"
    INDEX 01 00:16:59
  TRACK 22 AUDIO
    TITLE "17:cjc020_6739"
    INDEX 01 00:17:41
  TRACK 23 AUDIO
    TITLE "0:"
    INDEX 01 00:19:63
  TRACK 24 AUDIO
    TITLE "16:cjc020_6740"
    INDEX 01 00:19:71
  TRACK 25 AUDIO
    TITLE "0:"
    INDEX 01 00:21:06
  TRACK 26 AUDIO
    TITLE "17:cjc020_6741"
    INDEX 01 00:21:68
  TRACK 27 AUDIO
    TITLE "0:"
    INDEX 01 00:24:14
  TRACK 28 AUDIO
    TITLE "16:cjc020_6742"
    INDEX 01 00:24:27
  TRACK 29 AUDIO
    TITLE "0:"
    INDEX 01 00:25:39
  TRACK 30 AUDIO
    TITLE "17:cjc020_6743"
    INDEX 01 00:26:28
  TRACK 31 AUDIO
    TITLE "0:"
    INDEX 01 00:27:65
  TRACK 32 AUDIO
    TITLE "16:cjc020_6744"
    INDEX 01 00:27:71
  TRACK 33 AUDIO
    TITLE "0:"
    INDEX 01 00:29:11
  TRACK 34 AUDIO
    TITLE "17:cjc020_6745"
    INDEX 01 00:29:74
  TRACK 35 AUDIO
    TITLE "0:"
    INDEX 01 00:31:12
  TRACK 36 AUDIO
    TITLE "16:cjc020_6746"
    INDEX 01 00:31:18
  TRACK 37 AUDIO
    TITLE "0:"
    INDEX 01 00:32:39
  TRACK 38 AUDIO
    TITLE "17:cjc020_6747"
    INDEX 01 00:33:21
  TRACK 39 AUDIO
    TITLE "0:"
    INDEX 01 00:34:36
  TRACK 40 AUDIO
    TITLE "16:cjc020_6748"
    INDEX 01 00:34:43
  TRACK 41 AUDIO
    TITLE "0:"
    INDEX 01 00:35:51
  TRACK 42 AUDIO
    TITLE "17:cjc020_6749"
    INDEX 01 00:36:35
  TRACK 43 AUDIO
    TITLE "0:"
    INDEX 01 00:37:69
  TRACK 44 AUDIO
    TITLE "16:cjc020_6750"
    INDEX 01 00:37:73
  TRACK 45 AUDIO
    TITLE "0:"
    INDEX 01 00:39:13
  TRACK 46 AUDIO
    TITLE "17:cjc020_6751"
    INDEX 01 00:39:70
  TRACK 47 AUDIO
    TITLE "0:"
    INDEX 01 00:41:28
  TRACK 48 AUDIO
    TITLE "16:cjc020_6752"
    INDEX 01 00:41:38
  TRACK 49 AUDIO
    TITLE "0:"
    INDEX 01 00:42:47
  TRACK 50 AUDIO
    TITLE "17:cjc020_6753"
    INDEX 01 00:43:39
  TRACK 51 AUDIO
    TITLE "0:"
    INDEX 01 00:44:42
  TRACK 52 AUDIO
    TITLE "16:cjc020_6754"
    INDEX 01 00:44:50
  TRACK 53 AUDIO
    TITLE "0:"
    INDEX 01 00:45:59
  TRACK 54 AUDIO
    TITLE "17:cjc020_6755"
    INDEX 01 00:46:35
  TRACK 55 AUDIO
    TITLE "0:"
    INDEX 01 00:48:32
  TRACK 56 AUDIO
    TITLE "16:cjc020_6756"
    INDEX 01 00:48:42
  TRACK 57 AUDIO
    TITLE "0:"
    INDEX 01 00:49:55
  TRACK 58 AUDIO
    TITLE "17:cjc020_6757"
    INDEX 01 00:50:41
  TRACK 59 AUDIO
    TITLE "0:"
    INDEX 01 00:51:56
  TRACK 60 AUDIO
    TITLE "16:cjc020_6758"
    INDEX 01 00:51:63
  TRACK 61 AUDIO
    TITLE "0:"
    INDEX 01 00:52:67
  TRACK 62 AUDIO
    TITLE "17:cjc020_6759"
    INDEX 01 00:53:55
  TRACK 63 AUDIO
    TITLE "0:"
    INDEX 01 00:54:68
  TRACK 64 AUDIO
    TITLE "16:cjc020_6760"
    INDEX 01 00:54:74
  TRACK 65 AUDIO
    TITLE "0:"
    INDEX 01 00:56:20
  TRACK 66 AUDIO
    TITLE "17:cjc020_6761"
    INDEX 01 00:57:03
  TRACK 67 AUDIO
    TITLE "0:"
    INDEX 01 00:58:66
  TRACK 68 AUDIO
    TITLE "16:cjc020_6762"
    INDEX 01 00:58:71
  TRACK 69 AUDIO
    TITLE "0:"
    INDEX 01 01:00:08
  TRACK 70 AUDIO
    TITLE "17:cjc020_6763"
    INDEX 01 01:00:66
  TRACK 71 AUDIO
    TITLE "0:"
    INDEX 01 01:01:70
  TRACK 72 AUDIO
    TITLE "16:cjc020_6764"
    INDEX 01 01:02:05
  TRACK 73 AUDIO
    TITLE "0:"
    INDEX 01 01:03:31
  TRACK 74 AUDIO
    TITLE "17:cjc020_6765"
    INDEX 01 01:04:11
  TRACK 75 AUDIO
    TITLE "0:"
    INDEX 01 01:05:09
  TRACK 76 AUDIO
    TITLE "16:cjc020_6766"
    INDEX 01 01:05:17
  TRACK 77 AUDIO
    TITLE "0:"
    INDEX 01 01:06:20
  TRACK 78 AUDIO
    TITLE "17:cjc020_6767"
    INDEX 01 01:07:06
  TRACK 79 AUDIO
    TITLE "0:"
    INDEX 01 01:10:30
  TRACK 80 AUDIO
    TITLE "16:cjc020_6768"
    INDEX 01 01:11:13
  TRACK 81 AUDIO
    TITLE "0:"
    INDEX 01 01:12:36
  TRACK 82 AUDIO
    TITLE "17:cjc020_6769"
    INDEX 01 01:13:24
  TRACK 83 AUDIO
    TITLE "0:"
    INDEX 01 01:15:46
  TRACK 84 AUDIO
    TITLE "16:cjc020_6770"
    INDEX 01 01:15:50
  TRACK 85 AUDIO
    TITLE "0:"
    INDEX 01 01:16:46
